<?xml version="1.0" encoding="utf-8"?>
<!-- Uploaded to: SVG Repo, www.svgrepo.com, Generator: SVG Repo Mixer Tools -->
<svg width="800px" height="800px" viewBox="0 -57.43 420.5 420.5" xmlns="http://www.w3.org/2000/svg"><defs><style>.a{fill:#ffffff;}.b{fill:#211715;}.c{fill:#957f6e;}.d{fill:#7a7473;}.e{fill:#b3b3b3;}.f{fill:#3f88c9;}</style></defs><path class="a" d="M187.42,23.325a19.335,19.335,0,0,1-.691-5.219,16.257,16.257,0,0,1,31.073-6.54,13.949,13.949,0,0,1,7.167-1.907c8.1,0,14,6.1,13.7,13.758a15.109,15.109,0,0,1,1.85-.117,13.438,13.438,0,0,1,13.7,13.62c0,8.217-5.722,13.875-13.705,13.875H188.255c-8.291,0-13.7-5.711-13.7-13.875A13.4,13.4,0,0,1,187.42,23.325Z"/><path class="b" d="M189.348,22.793c-1.514-5.668-.166-11.857,4.475-15.678a14.855,14.855,0,0,1,15.96-1.48,14.182,14.182,0,0,1,6.292,6.94,2.021,2.021,0,0,0,2.737.717,12.621,12.621,0,0,1,12.956.319,11.109,11.109,0,0,1,4.9,9.806,2.008,2.008,0,0,0,2,2c5.167-.563,10.129,1.6,12.439,6.418a12.532,12.532,0,0,1-1.646,13.143c-2.737,3.106-6.426,3.817-10.378,3.817h-46.61c-3.1,0-6.34.276-9.272-.924-4.941-2.022-7.249-7.525-6.552-12.627a11.543,11.543,0,0,1,10.772-9.919c2.555-.17,2.574-4.171,0-4a15.609,15.609,0,0,0-13.708,9.614,16.77,16.77,0,0,0,2.052,16.081c3.242,4.222,8.166,5.775,13.325,5.775H238.8c4.726,0,9.225-.841,12.765-4.233a16.45,16.45,0,0,0,4.093-15.887,15.423,15.423,0,0,0-11.946-11.067,17.434,17.434,0,0,0-5.042-.191l2,2a15.179,15.179,0,0,0-6.88-13.26,16.666,16.666,0,0,0-16.994-.318l2.736.717a18.318,18.318,0,0,0-33.479.666,20.008,20.008,0,0,0-.559,12.634C186.155,26.341,190.014,25.287,189.348,22.793Z"/><path class="b" d="M269.979,65.19c11.938,6.885,24.064,13.438,36,20.326,2.234,1.289,4.25-2.167,2.019-3.454-11.937-6.888-24.063-13.441-36-20.326-2.234-1.288-4.251,2.167-2.019,3.454Z"/><path class="b" d="M156.774,61.736c-11.938,6.885-24.064,13.438-36,20.326-2.229,1.286-.217,4.744,2.019,3.454,11.936-6.888,24.062-13.441,36-20.326,2.229-1.286.217-4.743-2.019-3.454Z"/><path class="b" d="M216.373,116.909q0-18,.025-36c0-2.574-4-2.578-4,0q0,18-.025,36c0,2.574,4,2.578,4,0Z"/><path class="c" d="M395.583,179.274a9.643,9.643,0,0,0,7.464-8.954,25.8,25.8,0,0,0-1.513-8.5c-1.241-3.736-3.65-11.327-3.82-24.9l0,0a81.937,81.937,0,0,0-.17-11.456c-.541-7.35-3.942-15.557-8.835-20.119a16.225,16.225,0,0,0-4.628-3.45l-5.932-3.258c-3.4-1.266-6.565-1.875-12.534-1.875a35.455,35.455,0,0,0-22.363,8.448c-6.413,5.932-10.481,16.768-9.967,31.71v0c0,10.889-.855,18.744-2.059,23.206-.169.631-.334,1.352-.491,2.125a27.105,27.105,0,0,0-1.4,8.109c-.045,2.36.377,5.012,2.33,6.43a9.9,9.9,0,0,0,6.254,2.484Z"/><path class="a" d="M380.934,171.676c-1.329-.516-2.571-1-2.64-1.022-2.213-.8-2.126-2.223-2.4-3.814a11.884,11.884,0,0,1-.173-1.5,22.025,22.025,0,0,1-3.674,1.113,34.976,34.976,0,0,1-6.258.633,39.48,39.48,0,0,1-5.774-.557,20.947,20.947,0,0,1-4.493-1.294c-.1.9-.228,1.841-.293,2.187-.3,1.589-.191,3.015-2.4,3.814-.146.053-3.636,1.2-4.062,1.35l-.978.334c10.284,4.606,25.726,5.158,36.216-.049Z"/><path class="b" d="M331.282,136.921a110.835,110.835,0,0,1-1.32,19.645c-1.106,6.095-4.474,13.113-1.636,19.2,1.574,3.376,6.006,5.5,9.586,5.511,2.575.006,2.578-3.994,0-4a7.88,7.88,0,0,1-4.84-1.9,5.255,5.255,0,0,1-1.743-4.3c-.106-4.1,1.3-7.887,2.168-11.835,1.606-7.269,1.78-14.908,1.785-22.32,0-2.574-4-2.578-4,0Z"/><path class="b" d="M395.714,136.921a90.652,90.652,0,0,0,2.16,19.393c1.113,4.738,3.679,9.672,3.151,14.617a7.746,7.746,0,0,1-5.974,6.414c-2.506.584-1.445,4.442,1.063,3.858a11.759,11.759,0,0,0,7.769-6.194c1.679-3.425,1.27-7.339.391-10.944-.535-2.2-1.352-4.316-1.952-6.5a68.187,68.187,0,0,1-1.629-7.7,94.022,94.022,0,0,1-.979-12.952c-.037-2.572-4.038-2.579-4,0Z"/><path class="b" d="M378.678,96.712c-9.71-3.571-21.105-2.27-30.164,2.487a28.642,28.642,0,0,0-9.589,7.844,34.821,34.821,0,0,0-5.6,11.439,59.093,59.093,0,0,0-2.045,18.441c.08,2.568,4.08,2.579,4,0-.284-9.051.873-18.793,6.08-26.463,4.582-6.75,13.235-10.736,21.177-11.538a34.035,34.035,0,0,1,15.075,1.647c2.42.889,3.463-2.975,1.063-3.857Z"/><path class="b" d="M399.712,136.923c1.115-13.248-1.884-29.825-14.623-36.752-2.263-1.23-4.284,2.223-2.019,3.454,11.437,6.219,13.639,21.453,12.642,33.3-.216,2.565,3.786,2.551,4,0Z"/><path class="a" d="M328.6,235.308a78.917,78.917,0,0,1-9.112-5.221c-2.854-2.11-5.2-4.88-5.538-7.773a34.966,34.966,0,0,1,.616-8.469c.937-4.96,5.049-15.853,6.663-19.557,3.126-7.175,5.978-12.2,7.913-13.738,3.448-2.739,11.006-5.54,16.957-7.931a1.377,1.377,0,0,1,1.112.038c10.5,4.946,26.773,5.541,37.455-.132a1.385,1.385,0,0,1,1.182-.071c6.008,2.419,13.852,5.291,17.384,8.1,1.935,1.538,4.787,6.563,7.913,13.738,1.614,3.7,5.726,14.6,6.663,19.557a34.966,34.966,0,0,1,.616,8.469c-.337,2.893-2.683,5.663-5.538,7.773a78.917,78.917,0,0,1-9.112,5.221Z"/><path class="b" d="M329.608,233.581c-3.4-1.78-7.116-3.432-10.032-5.97a11.583,11.583,0,0,1-3.267-4.112,10.421,10.421,0,0,1-.37-4.654c.395-5.942,2.458-11.582,4.5-17.126,2.193-5.948,4.4-11.588,7.916-17.059a12.34,12.34,0,0,1,5.14-4.483,101.478,101.478,0,0,1,10.113-4.428c.872-.346,1.819-.628,2.652-1.055.441-.225.2-.183.705.039.418.184.84.363,1.263.536a39.8,39.8,0,0,0,4.709,1.58,51.615,51.615,0,0,0,10.606,1.651,43.822,43.822,0,0,0,20.872-3.621,4.22,4.22,0,0,1,.947-.465c.053-.008.619.236.847.327q1.4.559,2.8,1.113c1.759.7,3.519,1.4,5.257,2.149,2.609,1.129,5.732,2.289,7.861,4.237,1.864,1.7,3.13,4.419,4.3,6.709,1.538,3,2.808,5.831,3.951,8.723,2.117,5.356,4.363,10.925,5.47,16.6a36.469,36.469,0,0,1,.575,4.576,10.421,10.421,0,0,1-.37,4.654c-1.376,3.35-4.883,5.49-7.887,7.19-1.78,1.007-3.6,1.943-5.412,2.892-2.281,1.2-.262,4.649,2.018,3.454,6.823-3.574,15.858-7.709,15.716-16.687-.105-6.639-2.227-12.889-4.478-19.06-2.314-6.342-4.844-12.8-8.471-18.521a15.7,15.7,0,0,0-5.838-5.6,88.879,88.879,0,0,0-10.867-4.868q-1.325-.528-2.651-1.052a7.3,7.3,0,0,0-3.143-.865,7.8,7.8,0,0,0-2.651,1.041,26.308,26.308,0,0,1-2.511,1.009,39.586,39.586,0,0,1-10.731,2.06,48.418,48.418,0,0,1-11.348-.651,45.044,45.044,0,0,1-5.371-1.3c-1.657-.515-3.226-1.394-4.879-1.867-1.872-.537-4.083.85-5.788,1.53-1.981.79-3.957,1.592-5.911,2.444-2.934,1.278-6.35,2.642-8.647,4.959-2.164,2.184-3.643,5.157-5.009,7.87-1.561,3.105-2.962,6.29-4.23,9.525-2.233,5.694-4.673,11.656-5.575,17.738-.545,3.679-1.115,7.7.63,11.142,1.829,3.607,5.357,6.09,8.773,8.05,1.9,1.09,3.848,2.09,5.788,3.106,2.278,1.193,4.3-2.257,2.018-3.454Z"/><path class="b" d="M353.687,163.392a22.826,22.826,0,0,1-.251,2.516c-.015.122-.03.244-.046.365-.009.066-.018.132-.026.2s.072-.511.04-.3c-.028.188-.052.377-.082.564-.07.427-.135.855-.211,1.281a5.885,5.885,0,0,1-.152.669c-.027.093-.171.46-.028.121s-.047.053-.095.145c-.19.365.262-.252.044-.047-.07.066-.376.326-.113.136s-.107.066-.189.113c-.056.033-.114.064-.172.094-.28.146-.141,0,.026,0a2.569,2.569,0,0,0-.645.222l-1.191.394c-.79.262-1.582.52-2.371.788a2,2,0,1,0,1.064,3.857c1.4-.475,2.83-.873,4.206-1.4a5.139,5.139,0,0,0,3.348-3.451,23.641,23.641,0,0,0,.508-3.09,26.477,26.477,0,0,0,.336-3.175,2,2,0,1,0-4,0Z"/><path class="b" d="M373.545,163.776a2.655,2.655,0,0,1,.117.659c0-.035-.05-.475-.018-.124.007.081.016.161.023.242.025.294.036.588.054.882.054.853.208,1.694.334,2.538a5.369,5.369,0,0,0,2.216,3.9,11.682,11.682,0,0,0,2.445,1.077l2.847,1.106c.7.273,1.408.538,2.107.822a2,2,0,0,0,2.46-1.4,2.061,2.061,0,0,0-1.4-2.46c-1.449-.589-2.916-1.137-4.374-1.7-.535-.207-1.067-.43-1.608-.621-.235-.083.125.046.122.054s-.221-.11-.252-.128c-.077-.042-.151-.09-.227-.134-.214-.124.034-.1.11.1a1.414,1.414,0,0,0-.282-.27c-.142-.1.139.18.147.2a2.365,2.365,0,0,0-.164-.257c-.024-.042-.042-.095-.069-.134-.135-.193.137.432.084.2-.025-.113-.075-.223-.105-.336a7.481,7.481,0,0,1-.162-.815c-.05-.319-.1-.638-.15-.957-.011-.068-.075-.437-.027-.141s-.01-.1-.016-.161c-.016-.16-.029-.321-.039-.482a20.938,20.938,0,0,0-.319-2.722,2.012,2.012,0,0,0-2.461-1.4,2.05,2.05,0,0,0-1.4,2.46Z"/><path class="a" d="M327.206,192.181a1.649,1.649,0,0,0-.163.723c.029,8.382-.281,34.273-.082,46.85a3.386,3.386,0,0,0,3.379,3.344c13.072.026,58.219-.031,71.748-.006a3.379,3.379,0,0,0,3.39-3.414c-.09-11.639-.533-40.634-.533-46.774a1.626,1.626,0,0,0-1.611-1.639c-5.618-.019-21.441-.113-37.34-.229-15.9.116-31.723.21-37.341.229A1.613,1.613,0,0,0,327.206,192.181Z"/><path class="b" d="M325.278,191.65c-.513,1.46-.233,3.389-.238,4.924q-.009,2.782-.026,5.565-.04,7.01-.083,14.02-.037,7.22-.036,14.441,0,3.153.031,6.306c.021,2.258-.18,4.565,1.408,6.392,2.2,2.533,6.41,1.805,9.44,1.806q5.362,0,10.725,0,13.234,0,26.471-.013,11.775-.006,23.549-.006c3.1,0,7.319.751,9.6-1.808,1.53-1.72,1.363-3.869,1.342-6.006q-.027-2.763-.06-5.527-.153-13.286-.334-26.572c-.041-3.342-.083-6.684-.108-10.026-.01-1.354.2-2.981-.557-4.167-1.3-2.033-3.673-1.716-5.756-1.726-11.713-.055-23.432-.267-35.145-.214-11.509.051-23.017.163-34.526.216-2.116.009-4.239-.168-5.492,1.916-1.33,2.211,2.127,4.224,3.454,2.019.044-.074-.476-.082-.1.073a1.635,1.635,0,0,0,.377,0l1.055,0,2.559-.012q3.335-.017,6.67-.037,8.817-.05,17.632-.111c12.284-.084,24.566.051,36.85.12q3.141.018,6.282.033l2.323.01c.127,0,.263.011.39,0h.185q.336.033.042-.051c0-.054-.183-.281-.252-.2a1.656,1.656,0,0,0,0,.352c-.194,2.607.042,5.32.072,7.932q.143,12.5.315,25,.069,5.6.127,11.208c.012,1.239.456,3.342-1.254,3.6a24.223,24.223,0,0,1-3.407-.015q-10.545-.009-21.091,0-22.68.011-45.36.012c-1.039,0-2.743.339-3.265-.822a6.23,6.23,0,0,1-.145-2.3q-.017-1.461-.025-2.922c-.028-4.366-.021-8.732-.006-13.1.028-8.425.106-16.849.134-25.274,0-1.179-.294-2.871.095-3.977C329.989,190.279,326.126,189.233,325.278,191.65Z"/><path class="a" d="M389.839,149.373a27.949,27.949,0,0,1-5.457,9.615,21.924,21.924,0,0,1-12.34,7.462,34.976,34.976,0,0,1-6.258.633,39.48,39.48,0,0,1-5.774-.557,22.271,22.271,0,0,1-12.913-7.352,28.008,28.008,0,0,1-5.57-9.58,12.827,12.827,0,0,1-6.813-5.489,8.143,8.143,0,0,1-.283-7.892,5.964,5.964,0,0,1,6.831-2.565,31.836,31.836,0,0,1,11.514-6.545c2.186-.634,6.029-1.745,7.227-2.166,5.837-2.052,12.3-5.53,15.248-9.173,1.565,5.182,9.832,16.845,14.567,17.928a5.926,5.926,0,0,1,7.106,2.646,8.141,8.141,0,0,1-.529,7.878,12.923,12.923,0,0,1-6.306,5.056"/><path class="b" d="M390.7,135.492a3.834,3.834,0,0,1,1.766-.083,5.936,5.936,0,0,1,.615.166c.076.024.446.171.216.07a4.961,4.961,0,0,1,.563.3c-.009-.006.5.335.292.175a4.369,4.369,0,0,1,1.549,3.926c-.157,3.246-3.139,6.167-6.14,7.3a2.055,2.055,0,0,0-1.4,2.46,2.015,2.015,0,0,0,2.46,1.4c4.851-1.83,9.141-6.179,9.087-11.645a8.242,8.242,0,0,0-3.3-6.71,8.036,8.036,0,0,0-6.771-1.211c-2.482.673-1.428,4.533,1.063,3.857Z"/><path class="b" d="M341.805,131.724a8.028,8.028,0,0,0-6.8,1.046,8.286,8.286,0,0,0-3.458,6.636c-.225,5.474,4.006,9.905,8.779,11.878a2.011,2.011,0,0,0,2.46-1.4,2.05,2.05,0,0,0-1.4-2.46c-2.977-1.231-5.784-4.269-5.847-7.534a4.965,4.965,0,0,1,.408-2.3c-.057.129.177-.322.208-.374,0,.009.332-.5.179-.3a4.593,4.593,0,0,1,.435-.469c.04-.038.471-.39.252-.228a3.953,3.953,0,0,1,1.852-.8,5.379,5.379,0,0,1,.945-.041c.386,0-.1-.06.307.032.207.047.41.1.614.162,2.467.753,3.522-3.107,1.063-3.857Z"/><path class="b" d="M387.911,148.841c-2.35,6.975-7.688,13.277-14.936,15.32-7.377,2.078-16.311.95-22.208-4.172a25.627,25.627,0,0,1-7.321-10.956c-.839-2.417-4.705-1.378-3.858,1.063,2.931,8.443,9.5,15.866,18.4,18.049,8.781,2.153,18.611.776,25.477-5.371a30.1,30.1,0,0,0,8.3-12.87c.824-2.445-3.038-3.494-3.857-1.063Z"/><path class="b" d="M342.845,134.922a31.35,31.35,0,0,1,7.674-4.881,81.118,81.118,0,0,1,8.755-2.769,51.408,51.408,0,0,0,9.23-3.916,27.984,27.984,0,0,0,8.056-6.05c1.665-1.945-1.151-4.787-2.829-2.828a26.056,26.056,0,0,1-8.009,5.828,49.754,49.754,0,0,1-8.683,3.464,62.757,62.757,0,0,0-9.3,3.168,36.074,36.074,0,0,0-7.724,5.155c-1.962,1.673.879,4.491,2.828,2.829Z"/><path class="b" d="M373.516,116.889a42.31,42.31,0,0,0,6.785,11.264,34.675,34.675,0,0,0,4.4,4.735,11.244,11.244,0,0,0,4.673,2.752,2.046,2.046,0,0,0,2.46-1.4,2.02,2.02,0,0,0-1.4-2.46c-.2-.044-.984-.359-.5-.124a10.252,10.252,0,0,1-.919-.492c-.333-.205-.654-.429-.966-.665.336.254-.251-.21-.307-.257-.146-.123-.291-.249-.434-.376a35.511,35.511,0,0,1-4.182-4.545,51.753,51.753,0,0,1-3.471-5.041c-.5-.82-.97-1.655-1.406-2.508-.194-.381-.381-.765-.557-1.154-.04-.088-.277-.663-.1-.216-.076-.192-.152-.385-.224-.579a2.054,2.054,0,0,0-2.46-1.4,2.016,2.016,0,0,0-1.4,2.46Z"/><path class="b" d="M379.2,139.112a4.413,4.413,0,0,1-1.571,3.432,3.437,3.437,0,0,1-2.486.646,3.847,3.847,0,0,1-2.91-1.9,4.5,4.5,0,0,1,.762-5.238,3.559,3.559,0,0,1,4.846-.059A3.971,3.971,0,0,1,379.2,139.112Z"/><path class="b" d="M359.505,139.112a4.41,4.41,0,0,1-1.57,3.432,3.44,3.44,0,0,1-2.487.646,3.844,3.844,0,0,1-2.909-1.9,4.5,4.5,0,0,1,.761-5.238,3.56,3.56,0,0,1,4.847-.059A3.966,3.966,0,0,1,359.505,139.112Z"/><path class="a" d="M228.724,222.7c-1.743-.823-1.688-2.151-1.946-3.624a17.347,17.347,0,0,1-.217-2.22,21.433,21.433,0,0,1-5.758,2.089,34.967,34.967,0,0,1-6.258.633,39.342,39.342,0,0,1-5.773-.557,21.308,21.308,0,0,1-7.5-2.813c-.092,1.029-.32,2.853-.416,3.366-.295,1.589-.191,3.015-2.4,3.814-.084.03-1.429.469-2.644.866a.647.647,0,0,1,.312.088c3.51,2.517,11.844,4.958,18.265,4.958s14.754-2.441,18.264-4.958a.407.407,0,0,1,.066-.036c-1.521-.615-3.444-1.384-3.533-1.416C229.017,222.827,228.865,222.764,228.724,222.7Z"/><path class="b" d="M199.32,215.544a24.3,24.3,0,0,1-.279,2.743c-.012.09-.072.539-.017.139.051-.377,0,0-.014.1-.025.173-.052.344-.081.516-.086.5-.145,1.007-.259,1.5-.026.113-.055.225-.089.336-.019.062-.043.123-.062.185-.061.188-.139.071.088-.208a1.47,1.47,0,0,0-.17.3c-.062.158.154-.192.165-.2a1.955,1.955,0,0,0-.177.195c-.051.052-.113.1-.162.15-.129.141.155-.143.174-.135-.04-.017-.322.2-.385.23-.428.224.229-.056-.131.063l-.078.027c-.7.241-1.4.459-2.1.688-.8.26-1.6.514-2.391.784a2,2,0,0,0,1.063,3.857c1.493-.506,3-.958,4.494-1.472a5.265,5.265,0,0,0,3.435-3.124,12.923,12.923,0,0,0,.563-2.9,30.96,30.96,0,0,0,.416-3.777,2,2,0,0,0-4,0Z"/><path class="b" d="M224.433,216.009a2.562,2.562,0,0,0,.118.659c-.021-.03-.051-.477-.019-.124.006.061.013.122.018.183.027.295.039.59.057.886.05.817.19,1.622.313,2.431a5.494,5.494,0,0,0,1.691,3.641,9.932,9.932,0,0,0,2.787,1.426l2.631,1.053c.691.276,1.383.549,2.071.831a2.005,2.005,0,0,0,2.46-1.4,2.061,2.061,0,0,0-1.4-2.46c-1.38-.565-2.769-1.112-4.155-1.665q-.484-.2-.971-.387c-.083-.033-.165-.067-.249-.1l-.061-.024c-.41-.157.251.149-.095-.042-.134-.074-.266-.164-.4-.234-.18-.093.156.113.162.133-.009-.029-.137-.121-.169-.152s-.072-.086-.113-.119c-.184-.149.217.367.117.158a2.65,2.65,0,0,0-.2-.349c-.135-.193.138.432.085.2-.011-.047-.034-.1-.049-.142-.036-.113-.066-.227-.094-.342-.064-.272-.107-.55-.149-.826-.049-.323-.09-.649-.153-.969-.061-.3.035.351.007.073-.011-.111-.025-.221-.035-.331-.013-.155-.024-.311-.033-.466a19.28,19.28,0,0,0-.313-2.611,2.011,2.011,0,0,0-2.46-1.4,2.051,2.051,0,0,0-1.4,2.46Z"/><path class="a" d="M252.751,294.305a99.977,99.977,0,0,0,11.464-4.867c3.457-1.987,6.332-5.055,7.018-8.984.447-2.558-.41-7.284-1.113-9.758-1.681-5.914-5.709-17.7-7.182-22.418-2.43-7.775-4.42-11.784-7.392-14.122-3.974-3.128-14.626-7.018-21.376-9.742a2.436,2.436,0,0,0-1.52-.075c-3.51,2.517-11.843,4.958-18.264,4.958s-14.755-2.441-18.265-4.958a2.436,2.436,0,0,0-1.52.075c-6.749,2.724-17.4,6.614-21.375,9.742-2.972,2.338-4.962,6.347-7.392,14.122-1.474,4.716-5.5,16.5-7.182,22.418-.7,2.474-1.561,7.2-1.114,9.758.687,3.929,3.562,7,7.019,8.984a100.034,100.034,0,0,0,11.463,4.867Z"/><path class="a" d="M238.927,186.056a5.963,5.963,0,0,1,6.759,2.774,8.144,8.144,0,0,1-.53,7.879,12.932,12.932,0,0,1-6.305,5.056l-.247.089a27.978,27.978,0,0,1-5.46,9.627,21.93,21.93,0,0,1-12.341,7.461,34.967,34.967,0,0,1-6.258.633,39.342,39.342,0,0,1-5.773-.557,22.271,22.271,0,0,1-12.913-7.352,28.032,28.032,0,0,1-5.571-9.575,12.863,12.863,0,0,1-6.813-5.494,8.145,8.145,0,0,1-.283-7.892,5.966,5.966,0,0,1,6.843-2.561s-1.383-22.521,23.284-22.521C240.208,163.623,238.927,186.056,238.927,186.056Z"/><path class="d" d="M225.6,172.8a15.426,15.426,0,0,1,4.3,2.875,25.3,25.3,0,0,1,7.184,11.366,5.674,5.674,0,0,1,6.413-.41c1.593-6.441,1.43-13.464-.571-18.946a17.908,17.908,0,0,0-6.249-8.559l-5.017-4.089c-5.7-5.735-15.953-6.724-23.349-5.658a29.75,29.75,0,0,0-12.971,5,27.64,27.64,0,0,0-5.069,4.6c-6.347,7.362-7.655,19.024-5.675,28.152a6.023,6.023,0,0,1,5.416-.988l1.4-1.44c3.269-3.354,9.036-8.411,13.079-10.372.474-.23,1.081.078,1.271.806.384,1.473-.25,3.576.873,3.166,1.946-.71,7.791-4.568,12.323-6.337Z"/><path class="b" d="M186.333,185.636c-1.54-8.408-.4-18.552,5.354-25.249,6.425-7.482,16.321-10.182,25.895-9.183,4.57.477,9.327,1.967,12.666,5.25,1.838,1.806,4.668-1.021,2.829-2.829-7.013-6.894-18.712-7.76-27.864-5.7a30.683,30.683,0,0,0-14.871,8.042,28.522,28.522,0,0,0-7.411,13.338,40.879,40.879,0,0,0-.455,17.4c.463,2.529,4.318,1.458,3.857-1.063Z"/><path class="b" d="M245.66,186.164a36.728,36.728,0,0,0-.143-16.9,21.96,21.96,0,0,0-7.424-11.552c-1.961-1.641-4.8,1.174-2.828,2.829a20.64,20.64,0,0,1,3.661,3.675,18.63,18.63,0,0,1,2.733,6.112A32.161,32.161,0,0,1,241.8,185.1c-.53,2.512,3.325,3.585,3.857,1.064Z"/><path class="b" d="M239.459,187.984a3.83,3.83,0,0,1,1.765-.083,5.954,5.954,0,0,1,.616.166c.075.024.445.171.215.07a5.061,5.061,0,0,1,.564.3c-.01,0,.5.335.291.175a4.37,4.37,0,0,1,1.55,3.926c-.158,3.246-3.139,6.168-6.141,7.3a2.056,2.056,0,0,0-1.4,2.46,2.015,2.015,0,0,0,2.46,1.4c4.851-1.83,9.141-6.179,9.087-11.645a8.243,8.243,0,0,0-3.3-6.71,8.039,8.039,0,0,0-6.772-1.211c-2.481.674-1.428,4.533,1.064,3.857Z"/><path class="b" d="M190.567,184.216a8.03,8.03,0,0,0-6.8,1.046,8.289,8.289,0,0,0-3.457,6.636c-.226,5.474,4.006,9.905,8.779,11.878a2.012,2.012,0,0,0,2.46-1.4,2.052,2.052,0,0,0-1.4-2.461c-2.978-1.231-5.784-4.269-5.848-7.534a4.968,4.968,0,0,1,.409-2.3c-.057.129.177-.322.207-.374-.005.009.332-.5.179-.3a4.6,4.6,0,0,1,.436-.469c.04-.038.47-.39.251-.228a3.972,3.972,0,0,1,1.852-.8,5.385,5.385,0,0,1,.945-.041c.386,0-.1-.06.307.032.207.047.411.1.614.162,2.468.753,3.523-3.107,1.064-3.857Z"/><path class="b" d="M236.672,201.333c-2.349,6.975-7.687,13.277-14.936,15.32-7.377,2.078-16.31.95-22.208-4.172a25.636,25.636,0,0,1-7.321-10.956c-.839-2.417-4.7-1.378-3.857,1.063,2.931,8.443,9.494,15.866,18.4,18.049,8.781,2.153,18.61.776,25.476-5.371a30.1,30.1,0,0,0,8.3-12.87c.824-2.445-3.038-3.494-3.857-1.063Z"/><path class="b" d="M228.251,191.384a4.408,4.408,0,0,1-1.57,3.432,3.43,3.43,0,0,1-2.487.646,3.842,3.842,0,0,1-2.91-1.9,4.5,4.5,0,0,1,.762-5.238,3.559,3.559,0,0,1,4.847-.059A3.964,3.964,0,0,1,228.251,191.384Z"/><path class="b" d="M208.558,191.384a4.41,4.41,0,0,1-1.571,3.432,3.428,3.428,0,0,1-2.486.646,3.842,3.842,0,0,1-2.91-1.9,4.5,4.5,0,0,1,.762-5.238,3.558,3.558,0,0,1,4.846-.059A3.969,3.969,0,0,1,208.558,191.384Z"/><path class="b" d="M224.589,174.529a13.889,13.889,0,0,1,1.524.775c.268.16.529.331.784.51.122.086.243.175.363.263.279.2-.046-.042.127.1a24.5,24.5,0,0,1,3.135,2.94c.226.258.444.522.659.79l.127.162c-.082-.106-.083-.1,0,0,.1.139.2.277.3.417q.6.84,1.126,1.73.555.933,1.033,1.908.227.463.438.934c.07.156.14.313.206.471-.124-.3.1.26.11.283a2.05,2.05,0,0,0,2.46,1.4,2.02,2.02,0,0,0,1.4-2.46,29.169,29.169,0,0,0-4.9-8.308,20.147,20.147,0,0,0-6.877-5.367,2.052,2.052,0,0,0-2.736.718,2.022,2.022,0,0,0,.717,2.736Z"/><path class="b" d="M192.832,186.111a77.854,77.854,0,0,1,6.1-5.585c1.04-.856,2.1-1.678,3.212-2.446.569-.4,1.147-.777,1.74-1.135q.41-.249.829-.481l.269-.145q.656-.3-.274-.022l-.882-.514c-.078-.063.1-.173.049-.037a2.433,2.433,0,0,0,.036.638c.014.388,0,.778.024,1.165a2.933,2.933,0,0,0,1.212,2.445c1.425.877,3.038-.16,4.31-.846a98.206,98.206,0,0,1,10.04-5.26,2.061,2.061,0,0,0,1.4-2.46,2.014,2.014,0,0,0-2.46-1.4,63.289,63.289,0,0,0-7.451,3.678c-1.06.594-2.113,1.2-3.179,1.786-.378.207-.758.414-1.143.608a3.252,3.252,0,0,0-.566.274c.174-.156-.053-.06.185-.042l1.009.273-.123-.068.718.717c.087.114-.018.434.045.16a2.578,2.578,0,0,0-.012-.568c-.01-.476-.027-.943-.084-1.416a3.353,3.353,0,0,0-2.061-2.993c-1.953-.669-4.12,1.126-5.647,2.186A71.025,71.025,0,0,0,190,183.283c-1.8,1.84,1.023,4.671,2.828,2.828Z"/><path class="b" d="M253.283,296.234a94.543,94.543,0,0,0,11.214-4.676c3.819-1.971,7.2-5.276,8.415-9.49,1.117-3.885.123-8.475-.967-12.266-1.075-3.736-2.3-7.431-3.509-11.125-1.128-3.443-2.285-6.878-3.381-10.331-1.287-4.057-2.566-8.317-4.888-11.927a17.825,17.825,0,0,0-7.042-6.118,122.459,122.459,0,0,0-12-5.27c-1.94-.772-3.885-1.53-5.823-2.306a4.907,4.907,0,0,0-2.994-.386,11.592,11.592,0,0,0-2.291,1.261,34.744,34.744,0,0,1-25.88,2.074,28.311,28.311,0,0,1-5.505-2.144,10.527,10.527,0,0,0-2.161-1.191,4.908,4.908,0,0,0-2.994.386c-4.106,1.645-8.239,3.224-12.3,4.978-3.343,1.444-6.92,2.929-9.711,5.327-2.68,2.3-4.236,5.635-5.517,8.852-1.456,3.658-2.539,7.466-3.768,11.2-1.278,3.884-2.566,7.765-3.8,11.662a61.133,61.133,0,0,0-2.781,11.356,13.9,13.9,0,0,0,3.733,11.805c2.908,3.022,6.786,4.595,10.587,6.161q2.766,1.138,5.577,2.163c2.424.877,3.469-2.987,1.063-3.857a86.606,86.606,0,0,1-10.259-4.273c-3.177-1.64-6.344-4.461-6.829-8.209-.446-3.448.66-7.2,1.644-10.466,1.08-3.589,2.252-7.151,3.421-10.712,1.052-3.2,2.127-6.4,3.142-9.615,1.175-3.724,2.352-7.607,4.535-10.89,1.576-2.371,3.758-3.61,6.315-4.9,3.589-1.809,7.337-3.294,11.071-4.774a59.3,59.3,0,0,1,5.541-2.2,1.49,1.49,0,0,0,.242-.088c.405-.193.281.325-.059-.046a3.919,3.919,0,0,0,.912.566,23.418,23.418,0,0,0,2.477,1.2,43.481,43.481,0,0,0,12.666,3.169,37.164,37.164,0,0,0,12.82-1.2,41.291,41.291,0,0,0,6.115-2.074,22.361,22.361,0,0,0,2.237-1.1,9.761,9.761,0,0,0,.913-.566c-.254.184-.583-.2-.059.046a3.313,3.313,0,0,0,.389.148c1.826.587,3.611,1.431,5.394,2.137,1.909.757,3.818,1.519,5.709,2.321,3.182,1.352,6.738,2.711,9.47,4.886,2.036,1.62,3.513,4.468,4.544,7.027,1.395,3.466,2.424,7.075,3.589,10.623,1.215,3.7,2.443,7.4,3.632,11.107a79.235,79.235,0,0,1,2.79,9.906,17.961,17.961,0,0,1,.392,5.5,9.339,9.339,0,0,1-2.437,4.9c-2.517,2.753-6.036,4.16-9.418,5.542q-2.6,1.06-5.232,2.022c-2.4.869-1.365,4.736,1.064,3.857Z"/><path class="a" d="M175.406,252.626a1.632,1.632,0,0,0-.163.723c.029,8.381-.281,34.273-.083,46.85a3.387,3.387,0,0,0,3.38,3.344c13.071.026,58.218-.031,71.748-.007a3.378,3.378,0,0,0,3.39-3.414c-.09-11.638-.534-40.633-.534-46.773a1.625,1.625,0,0,0-1.61-1.639c-5.618-.02-21.441-.113-37.341-.229-15.9.116-31.722.209-37.34.229A1.612,1.612,0,0,0,175.406,252.626Z"/><path class="b" d="M173.477,252.094c-.512,1.46-.232,3.389-.237,4.924q-.009,2.783-.027,5.565-.039,7.009-.082,14.02-.037,7.221-.036,14.441,0,3.154.031,6.307c.02,2.257-.18,4.564,1.408,6.391,2.2,2.534,6.409,1.805,9.44,1.807q5.361,0,10.724,0,13.236,0,26.472-.013,11.775-.006,23.549,0c3.1,0,7.319.751,9.595-1.808,1.53-1.72,1.363-3.87,1.343-6.006q-.027-2.764-.06-5.527-.153-13.287-.334-26.572c-.041-3.342-.083-6.685-.108-10.027-.01-1.354.2-2.98-.558-4.166-1.3-2.034-3.673-1.717-5.755-1.727-11.713-.054-23.432-.266-35.145-.214-11.509.052-23.017.164-34.526.216-2.116.01-4.239-.167-5.492,1.916-1.33,2.212,2.127,4.225,3.454,2.019.044-.073-.476-.081-.1.074a1.633,1.633,0,0,0,.377,0l1.055,0,2.559-.012q3.335-.016,6.67-.036,8.815-.051,17.632-.112c12.283-.084,24.566.051,36.85.12q3.141.018,6.281.033l2.323.011c.128,0,.264.011.391,0h.185q.336.033.042-.051c0-.055-.183-.281-.253-.2a1.717,1.717,0,0,0,0,.351c-.194,2.607.042,5.32.072,7.933q.143,12.5.315,25,.069,5.6.127,11.208c.012,1.239.455,3.343-1.254,3.6a24.223,24.223,0,0,1-3.407-.015q-10.545-.007-21.091,0-22.68.01-45.36.012c-1.039,0-2.744.34-3.265-.821a6.213,6.213,0,0,1-.145-2.3q-.017-1.461-.025-2.921c-.028-4.366-.021-8.733-.006-13.1.028-8.424.106-16.849.134-25.273,0-1.18-.294-2.872.094-3.978C178.189,250.724,174.326,249.677,173.477,252.094Z"/><path class="a" d="M20.571,231.861a100.334,100.334,0,0,1-11.464-4.867c-3.457-1.988-6.332-5.056-7.018-8.984-.447-2.558.41-7.284,1.113-9.758,1.681-5.915,5.709-17.7,7.182-22.418,2.43-7.775,4.42-11.784,7.392-14.123,3.974-3.127,14.626-7.017,21.376-9.742H78.721c6.749,2.725,17.4,6.615,21.375,9.742,2.972,2.339,4.962,6.348,7.392,14.123,1.474,4.715,5.5,16.5,7.182,22.418.7,2.474,1.561,7.2,1.114,9.758-.687,3.928-3.562,7-7.019,8.984A100.391,100.391,0,0,1,97.3,231.861Z"/><path class="a" d="M83.477,123.611a5.964,5.964,0,0,1,6.759,2.774,8.143,8.143,0,0,1-.529,7.879A12.923,12.923,0,0,1,83.4,139.32s-.123.045-.25.1a27.952,27.952,0,0,1-5.457,9.616A21.934,21.934,0,0,1,65.353,156.5a35.141,35.141,0,0,1-6.257.633,39.618,39.618,0,0,1-5.774-.557,22.276,22.276,0,0,1-12.913-7.352,28.031,28.031,0,0,1-5.57-9.576,12.854,12.854,0,0,1-6.813-5.494,8.141,8.141,0,0,1-.283-7.891,5.963,5.963,0,0,1,6.842-2.561s-2.79-22.411,23.876-22.411C84.906,101.289,83.477,123.611,83.477,123.611Z"/><path class="e" d="M81.253,97.091a15.475,15.475,0,0,1,6.226,8.314c1.986,5.444,2.161,12.405.606,18.8a6.035,6.035,0,0,0-4.294-.679,1.989,1.989,0,0,1-.533-1.006c-.134-.851-.26-1.657-.465-2.482a20.172,20.172,0,0,0-2.847-6.379c-2.182-3.215-4.849-5.718-9.188-6.6l-10.971-.381a37.661,37.661,0,0,0-9.853-.27A9.686,9.686,0,0,0,44.6,108.27c-1.955,1.646-2.635,4.35-3.778,6.663-1.366,2.766-3.3,5.295-5.762,6.507l-.478,2.26a6.025,6.025,0,0,0-5.437.978c-1.979-9.128-.671-20.788,5.676-28.15a27.575,27.575,0,0,1,5.069-4.6,29.758,29.758,0,0,1,12.971-4.995c7.4-1.066,17.646-.076,23.349,5.659Z"/><path class="b" d="M78.189,163.9c6.038,2.432,12.288,4.569,18.011,7.7a12.625,12.625,0,0,1,4.916,4.166,35.515,35.515,0,0,1,3.8,8.589q2.85,8.582,5.6,17.2c.857,2.667,1.771,5.341,2.449,8.061.709,2.843,1.471,6.24.589,9.116-1.028,3.354-3.979,5.674-7.007,7.168a95.389,95.389,0,0,1-9.775,4.029c-2.4.87-1.366,4.736,1.063,3.857,3.256-1.178,6.489-2.463,9.634-3.912a19.868,19.868,0,0,0,8.02-6.214c4.206-5.79,1.984-13.254.052-19.48-1.9-6.12-4-12.175-5.934-18.282-1.871-5.9-3.8-12.683-9.155-16.4a53.1,53.1,0,0,0-9.754-4.863c-3.789-1.6-7.63-3.062-11.444-4.6a2.013,2.013,0,0,0-2.46,1.4,2.049,2.049,0,0,0,1.4,2.46Z"/><path class="b" d="M38.62,160.041c-6.525,2.628-13.356,4.9-19.486,8.4a16.67,16.67,0,0,0-5.757,5.2,38.562,38.562,0,0,0-4.2,9.441c-2.066,6.172-4.066,12.374-6.043,18.575a77.179,77.179,0,0,0-2.512,8.887c-.693,3.624-1.1,7.295.421,10.762a17.035,17.035,0,0,0,8.27,8.053,104.8,104.8,0,0,0,10.73,4.432c2.425.878,3.469-2.986,1.064-3.857-2.932-1.061-5.846-2.2-8.678-3.509-2.7-1.243-5.347-2.82-7-5.378-1.82-2.818-1.6-5.905-1.019-9.08a66.639,66.639,0,0,1,2.221-8.117c1.792-5.679,3.731-11.31,5.528-16.987,1.568-4.953,3.25-11.28,7.7-14.185a56.583,56.583,0,0,1,9.147-4.5c3.537-1.48,7.121-2.844,10.678-4.276a2.063,2.063,0,0,0,1.4-2.46,2.013,2.013,0,0,0-2.46-1.4Z"/><path class="f" d="M67.226,169.412c-3.269-3.669-7.343-8.291-7.51-8.6l-1.509.071c-.2.372-5.642,7.008-8.764,10.735,1.3,1.808,3.028,4.832,4.118,6.428-.093,1.445-1.315,7.969-2.21,13.359l-.071.427,8.738-.062,8.049.057-.143-.723c-1.122-5.672-2.273-11.944-2.411-13.258a51.47,51.47,0,0,1,3.415-6.529C68.408,170.737,67.831,170.091,67.226,169.412Z"/><path class="b" d="M47.712,172.625c1.479,2.077,2.7,4.323,4.125,6.435l-.273-1.01c-.014.169-.1.838-.03.336-.052.377-.111.753-.17,1.129-.171,1.073-.355,2.143-.539,3.214-.451,2.615-.912,5.229-1.346,7.847a2.061,2.061,0,0,0,1.4,2.46,2.016,2.016,0,0,0,2.46-1.4c.645-3.89,1.391-7.766,1.979-11.665a15.153,15.153,0,0,0,.242-1.833,4.808,4.808,0,0,0-1.149-2.465c-1.066-1.7-2.078-3.436-3.242-5.07a2.056,2.056,0,0,0-2.737-.718,2.017,2.017,0,0,0-.717,2.737Z"/><path class="b" d="M69.852,190.572c-.747-3.784-1.484-7.572-2.124-11.375-.049-.289-.1-.578-.142-.867-.017-.107-.033-.214-.05-.32-.035-.219.079-.288-.021-.129a1.293,1.293,0,0,0-.051.318c-.024.573.042.036.133-.164.166-.365.339-.726.515-1.086a47.925,47.925,0,0,1,2.543-4.623c1.384-2.179-2.076-4.188-3.454-2.019a48.161,48.161,0,0,0-2.726,5,6.558,6.558,0,0,0-.957,2.582,12.473,12.473,0,0,0,.254,1.773c.648,4.006,1.437,7.992,2.223,11.973a2.02,2.02,0,0,0,2.46,1.4,2.04,2.04,0,0,0,1.4-2.46Z"/><path class="a" d="M58.207,160.883c-2.5-.6-11.85-4.578-15.02-6.2-2.215,2.372-5.362,5.72-7.371,8,2.016,2.222,10.14,10.147,11.517,11.249C48.539,172.79,57.94,161.375,58.207,160.883Z"/><path class="a" d="M59.716,160.812c2.47-.592,11.714-4.526,14.848-6.13a99.938,99.938,0,0,0,7.492,7.629c-2.18,2.377-9.01,9.676-10.818,11.416C69.966,172.522,59.979,161.3,59.716,160.812Z"/><path class="b" d="M58.738,158.954a51.138,51.138,0,0,1-7.125-2.661c-2.5-1.042-5-2.111-7.416-3.338a2.055,2.055,0,0,0-2.424.313c-2.474,2.649-4.968,5.282-7.371,8a2.052,2.052,0,0,0,0,2.828c1.911,2.095,3.97,4.065,6,6.045,1.8,1.755,3.566,3.617,5.519,5.2a2.056,2.056,0,0,0,2.829,0,81.766,81.766,0,0,0,5.864-6.857q1.722-2.077,3.423-4.172a21.968,21.968,0,0,0,1.9-2.422c1.32-2.217-2.137-4.231-3.454-2.018-.048.081-.112.151-.164.229-.205.306.263-.331.11-.142-.067.084-.132.169-.2.253q-.592.743-1.19,1.481-1.691,2.084-3.405,4.146a79.722,79.722,0,0,1-5.713,6.673h2.829c-1.954-1.587-3.721-3.449-5.52-5.205-2.028-1.98-4.086-3.949-6-6.044v2.828c2.4-2.714,4.9-5.348,7.371-8l-2.423.312c2.637,1.341,5.379,2.489,8.107,3.63a52.648,52.648,0,0,0,7.39,2.773C60.173,163.435,61.239,159.578,58.738,158.954Z"/><path class="b" d="M60.247,162.741A52.037,52.037,0,0,0,67.556,160c2.7-1.129,5.409-2.264,8.017-3.59L73.15,156.1a91.727,91.727,0,0,0,7.492,7.628V160.9c-3.537,3.853-7.059,7.776-10.818,11.416h2.829c-2.152-2.065-4.077-4.413-6.06-6.637q-1.83-2.053-3.641-4.122c-.4-.461-.8-.923-1.2-1.39-.129-.152-.254-.308-.385-.459-.348-.4.209.316.077.1-1.334-2.2-4.795-.19-3.454,2.019a18.433,18.433,0,0,0,1.958,2.358q1.815,2.085,3.658,4.145c2.035,2.284,4.01,4.7,6.219,6.817a2.038,2.038,0,0,0,2.829,0c3.758-3.641,7.28-7.563,10.817-11.417a2.025,2.025,0,0,0,0-2.828,91.74,91.74,0,0,1-7.492-7.629,2.038,2.038,0,0,0-2.423-.313c-2.386,1.213-4.859,2.27-7.328,3.3a50.693,50.693,0,0,1-7.043,2.631C56.688,159.507,57.745,163.366,60.247,162.741Z"/><path class="b" d="M30.883,123.192c-1.54-8.408-.4-18.552,5.355-25.25C42.662,90.46,52.559,87.76,62.132,88.76c4.571.477,9.327,1.966,12.667,5.249,1.837,1.806,4.668-1.02,2.828-2.828-7.012-6.894-18.711-7.761-27.864-5.7a30.672,30.672,0,0,0-14.87,8.042,28.511,28.511,0,0,0-7.412,13.338,40.878,40.878,0,0,0-.455,17.4c.463,2.528,4.319,1.457,3.857-1.063Z"/><path class="b" d="M90.21,123.882a36.4,36.4,0,0,0-.251-17.291,21.83,21.83,0,0,0-3.066-6.772,19.947,19.947,0,0,0-4.63-4.455,2.014,2.014,0,0,0-2.736.717,2.045,2.045,0,0,0,.717,2.736c7.264,5.313,7.822,15.884,6.109,24-.53,2.511,3.325,3.585,3.857,1.063Z"/><path class="b" d="M70.227,108.991a12.889,12.889,0,0,1,8.4,6.306,18.554,18.554,0,0,1,2.526,6.663,4.739,4.739,0,0,0,1.575,3.277,3.97,3.97,0,0,0,3.724.49,2.046,2.046,0,0,0,1.4-2.46,2.02,2.02,0,0,0-2.46-1.4c-.013,0-.537.209-.3.112q-.43-.029-.1.039a.349.349,0,0,1,.2.079c.129-.01-.07.456,0-.107a3.8,3.8,0,0,0-.152-.942,20.4,20.4,0,0,0-.871-3.388,22.589,22.589,0,0,0-3.246-6.063,16.225,16.225,0,0,0-9.628-6.466,2.047,2.047,0,0,0-2.46,1.4,2.02,2.02,0,0,0,1.4,2.46Z"/><path class="b" d="M60.319,104.752a37.33,37.33,0,0,0-8.9-.463c-2.85.174-5.8.579-8.078,2.448-2.152,1.767-2.938,4.428-4.08,6.854-1.158,2.458-2.741,4.838-5.206,6.122-2.283,1.189-.263,4.643,2.019,3.454a14.691,14.691,0,0,0,5.509-5.465c1.358-2.2,1.971-4.819,3.445-6.936,1.4-2.014,3.927-2.313,6.2-2.464a33.111,33.111,0,0,1,8.031.307,2.054,2.054,0,0,0,2.46-1.4,2.018,2.018,0,0,0-1.4-2.461Z"/><path class="b" d="M67.634,102.5a9.632,9.632,0,0,0-5.373-5.616,15.018,15.018,0,0,0-8.747-1.107,2.007,2.007,0,0,0-1.4,2.46,2.058,2.058,0,0,0,2.46,1.4c.08-.013.329-.051.11-.022.141-.019.282-.032.423-.045q.468-.041.938-.046c.273,0,.545,0,.817.016.135.008.269.017.4.029.035,0,.422.043.232.02s.191.031.226.037q.243.042.486.093c.256.056.511.119.763.19s.5.15.747.236c.123.043.245.091.368.135.324.119-.029-.021.152.061a10.859,10.859,0,0,1,1.333.713c.106.066.209.134.312.2.028.02.332.232.171.115-.186-.136.191.156.225.186.091.078.18.158.268.24q.258.242.494.505c.077.087.151.175.224.265-.119-.145-.106-.151-.007.005.135.211.269.42.383.644.022.043.155.365.068.132-.1-.264.062.213.064.216a2,2,0,1,0,3.857-1.063Z"/><path class="b" d="M84.009,125.54a3.835,3.835,0,0,1,1.766-.084,6.2,6.2,0,0,1,.615.166c.076.025.446.171.215.07a4.982,4.982,0,0,1,.564.3c-.009-.006.5.335.292.175a4.367,4.367,0,0,1,1.549,3.925c-.157,3.246-3.139,6.168-6.141,7.3a2.055,2.055,0,0,0-1.4,2.46,2.015,2.015,0,0,0,2.46,1.4c4.851-1.83,9.14-6.179,9.087-11.645a8.245,8.245,0,0,0-3.3-6.711,8.033,8.033,0,0,0-6.771-1.21c-2.482.673-1.429,4.533,1.063,3.857Z"/><path class="b" d="M35.117,121.771a8.029,8.029,0,0,0-6.8,1.047,8.285,8.285,0,0,0-3.458,6.635c-.225,5.475,4.006,9.906,8.779,11.879a2.012,2.012,0,0,0,2.46-1.4,2.05,2.05,0,0,0-1.4-2.46c-2.978-1.231-5.784-4.269-5.847-7.534a4.969,4.969,0,0,1,.408-2.3c-.057.129.177-.321.208-.374-.006.01.332-.5.179-.3a4.491,4.491,0,0,1,.435-.469c.04-.039.47-.39.252-.228a3.965,3.965,0,0,1,1.852-.8,5.393,5.393,0,0,1,.944-.04c.387,0-.1-.06.308.032.207.047.41.1.614.161,2.467.754,3.522-3.106,1.063-3.857Z"/><path class="b" d="M81.223,138.889c-2.35,6.974-7.688,13.277-14.936,15.319-7.377,2.079-16.311.951-22.208-4.171a25.638,25.638,0,0,1-7.322-10.956c-.838-2.417-4.7-1.378-3.857,1.063,2.931,8.443,9.5,15.865,18.4,18.049,8.781,2.153,18.611.776,25.477-5.371a30.118,30.118,0,0,0,8.3-12.87c.823-2.445-3.038-3.494-3.857-1.063Z"/><path class="b" d="M72.8,128.94a4.413,4.413,0,0,1-1.571,3.432,3.433,3.433,0,0,1-2.486.646,3.842,3.842,0,0,1-2.91-1.9,4.5,4.5,0,0,1,.762-5.239,3.559,3.559,0,0,1,4.846-.059A3.971,3.971,0,0,1,72.8,128.94Z"/><path class="b" d="M53.108,128.94a4.41,4.41,0,0,1-1.57,3.432,3.435,3.435,0,0,1-2.487.646,3.842,3.842,0,0,1-2.91-1.9,4.5,4.5,0,0,1,.762-5.239,3.559,3.559,0,0,1,4.846-.059A3.971,3.971,0,0,1,53.108,128.94Z"/><path class="a" d="M19.956,192.181a1.649,1.649,0,0,0-.163.723c.03,8.382-.281,34.273-.082,46.85A3.386,3.386,0,0,0,23.09,243.1c13.072.026,58.219-.031,71.748-.006a3.378,3.378,0,0,0,3.39-3.414c-.09-11.639-.533-40.634-.533-46.774a1.626,1.626,0,0,0-1.611-1.639c-5.618-.019-21.44-.113-37.34-.229-15.9.116-31.723.21-37.341.229A1.613,1.613,0,0,0,19.956,192.181Z"/><path class="b" d="M18.028,191.65c-.513,1.46-.232,3.389-.237,4.924q-.009,2.782-.027,5.565-.041,7.01-.083,14.02-.036,7.22-.035,14.441,0,3.153.03,6.306c.021,2.258-.18,4.565,1.408,6.392,2.2,2.533,6.41,1.805,9.44,1.806q5.362,0,10.725,0,13.236,0,26.472-.013,11.773-.006,23.548-.006c3.1,0,7.319.751,9.6-1.808,1.53-1.72,1.363-3.869,1.342-6.006q-.025-2.763-.059-5.527-.154-13.286-.335-26.572c-.041-3.342-.083-6.684-.108-10.026-.01-1.354.2-2.981-.557-4.167-1.3-2.033-3.673-1.716-5.756-1.726-11.713-.055-23.432-.267-35.145-.214-11.509.051-23.017.163-34.526.216-2.116.009-4.238-.168-5.492,1.916-1.33,2.211,2.127,4.224,3.454,2.019.044-.074-.476-.082-.1.073a1.644,1.644,0,0,0,.378,0l1.055,0,2.558-.012q3.336-.017,6.67-.037,8.817-.05,17.632-.111c12.284-.084,24.566.051,36.85.12q3.141.018,6.282.033l2.323.01c.128,0,.263.011.39,0h.186q.334.033.042-.051c0-.054-.183-.281-.253-.2a1.725,1.725,0,0,0,0,.352c-.194,2.607.042,5.32.072,7.932q.142,12.5.315,25,.069,5.6.127,11.208c.012,1.239.456,3.342-1.253,3.6a24.237,24.237,0,0,1-3.408-.015q-10.545-.009-21.091,0-22.678.011-45.359.012c-1.039,0-2.744.339-3.266-.822a6.23,6.23,0,0,1-.145-2.3q-.017-1.461-.025-2.922c-.027-4.366-.021-8.732-.006-13.1.029-8.425.106-16.849.134-25.274,0-1.179-.293-2.871.1-3.977C22.739,190.279,18.876,189.233,18.028,191.65Z"/></svg>